<?xml version="1.0" encoding="UTF-8" standalone="no"?>
<svg
   xmlns:dc="http://purl.org/dc/elements/1.1/"
   xmlns:cc="http://creativecommons.org/ns#"
   xmlns:rdf="http://www.w3.org/1999/02/22-rdf-syntax-ns#"
   xmlns:svg="http://www.w3.org/2000/svg"
   xmlns="http://www.w3.org/2000/svg"
   xmlns:xlink="http://www.w3.org/1999/xlink"
   xmlns:sodipodi="http://sodipodi.sourceforge.net/DTD/sodipodi-0.dtd"
   xmlns:inkscape="http://www.inkscape.org/namespaces/inkscape"
   width="2.43025in"
   height="2.43025in"
   viewBox="0 0 175 175"
   id="svg2"
   version="1.1"
   inkscape:version="0.48.1 r9760"
   sodipodi:docname="stereograma.svg">
  <metadata
     id="metadata9">
    <rdf:RDF>
      <cc:Work
         rdf:about="">
        <dc:format>image/svg+xml</dc:format>
        <dc:type
           rdf:resource="http://purl.org/dc/dcmitype/StillImage" />
      </cc:Work>
    </rdf:RDF>
  </metadata>
  <defs
     id="defs7">
    <linearGradient
       id="linearGradient3754">
      <stop
         style="stop-color:#154dbd;stop-opacity:1;"
         offset="0"
         id="stop3756" />
      <stop
         style="stop-color:#00c1df;stop-opacity:1;"
         offset="1"
         id="stop3758" />
    </linearGradient>
    <linearGradient
       inkscape:collect="always"
       xlink:href="#linearGradient3754"
       id="linearGradient3764"
       x1="8.9902992"
       y1="83.713425"
       x2="167.17912"
       y2="83.713425"
       gradientUnits="userSpaceOnUse"
       gradientTransform="matrix(-0.28919447,-0.95727037,0.95727037,-0.28919447,23.699723,211.08056)" />
  </defs>
  <sodipodi:namedview
     pagecolor="#ffffff"
     bordercolor="#666666"
     borderopacity="1"
     objecttolerance="10"
     gridtolerance="10"
     guidetolerance="10"
     inkscape:pageopacity="0"
     inkscape:pageshadow="2"
     inkscape:window-width="1440"
     inkscape:window-height="854"
     id="namedview5"
     showgrid="false"
     inkscape:zoom="1.316737"
     inkscape:cx="109.36124"
     inkscape:cy="145.73877"
     inkscape:window-x="0"
     inkscape:window-y="26"
     inkscape:window-maximized="1"
     inkscape:current-layer="svg2" />
  <path
     id="Selection"
     d="m 16.323252,103.67438 c 6.298088,-10.238879 15.54618,-20.53325 24.96444,-28.016725 0,0 13.725756,-9.892099 13.725756,-9.892099 C 59.41076,61.752397 61.935062,55.5159 65.008522,50.440189 72.622025,37.88179 86.136413,24.177944 98.556616,16.257658 c 9.294844,-5.92102 16.770614,-8.9420585 24.155394,1.947615 2.65691,3.919098 5.38814,9.121542 7.36289,13.445201 3.54077,7.778398 4.63231,10.561657 7.0092,18.775238 0,0 5.08455,33.981597 5.08455,33.981597 0,0 8.78771,17.193311 8.78771,17.193311 5.99496,12.37507 8.39359,20.93725 10.411,34.46173 0.5293,5.76318 1.73784,15.57284 -1.08853,20.63658 -5.54005,9.9472 -27.09377,6.61817 -36.56006,5.09049 -8.8617,-1.42828 -18.17973,-4.05583 -26.363814,-7.7363 -5.316708,-2.38432 -11.371251,-6.41564 -16.915493,-7.58212 0,0 -18.011655,-0.83689 -18.011655,-0.83689 -14.55849,-1.23242 -41.819134,-8.13368 -51.200145,-19.57984 -4.2476634,-8.28563 0.73772,-15.29697 5.095589,-22.37989 z m 15.992967,4.52842 c -1.702111,2.45723 -4.521318,6.26525 -3.566976,9.42424 0.954342,3.15899 5.410389,4.76912 8.188304,5.87293 6.800994,2.6985 18.32598,7.37538 25.201249,3.88808 C 52.319765,112.31353 50.634109,109.39636 51.149406,91.011777 43.493312,91.914449 36.485544,102.19013 32.316219,108.2028 z m 55.914619,19.10619 c 11.592428,1.40769 27.437532,-4.68496 32.643212,-15.66979 1.82773,-3.87411 1.59304,-6.864 1.99702,-10.95566 0.48742,-5.025705 1.16573,-8.416767 -0.93558,-13.297638 -2.9259,-6.815051 -11.72453,-16.264298 -18.98641,-18.551955 -9.321612,-2.501111 -24.998116,2.109454 -31.55163,9.53185 -7.026767,7.377333 -9.725245,20.644624 -6.229616,30.348343 4.169691,8.5808 13.138527,17.38318 23.063004,18.59485 z M 70.481216,92.484034 c 5.049739,-21.321413 33.903154,-25.399933 44.527164,-6.139342 11.58133,20.977088 -11.52169,44.712558 -33.540757,32.028358 -4.373499,-2.51257 -5.939982,-4.72404 -8.520713,-8.87508 -2.582049,-5.33108 -3.860417,-11.118688 -2.465694,-17.013936 z m 64.539824,54.849116 c 3.03437,-0.0183 8.1213,0.42973 9.84074,-2.97292 1.44964,-2.25561 0.49626,-6.89828 0.009,-9.58213 -1.26176,-8.60269 -3.6239,-17.11322 -7.51905,-24.88902 -4.80096,4.30224 -6.69696,10.02508 -11.15149,15.16284 -5.48478,6.3265 -11.11151,9.07099 -17.87299,13.45364 4.70225,7.09323 18.6032,8.08555 26.69349,8.82759 z M 115.95163,39.05107 c -1.08047,-2.504552 -2.85709,-6.898515 -5.31312,-7.974209 -3.3158,-1.881484 -7.30379,1.308111 -9.84074,2.97292 -6.326202,5.097309 -17.352568,13.620254 -17.340946,22.130534 7.642344,-0.0837 14.770642,-1.004511 22.286096,1.154308 6.14116,1.759181 11.35738,5.678132 17.72777,6.605477 -1.06164,-8.631815 -3.80668,-17.026674 -7.51906,-24.88903 z"
     style="fill:url(#linearGradient3764);fill-opacity:1;stroke:#000000;stroke-width:1;stroke-opacity:1"
     inkscape:connector-curvature="0" />
</svg>
